<svg id="Layer_1" data-name="Layer 1" xmlns="http://www.w3.org/2000/svg" viewBox="0 0 428.27 102.57"><path id="Fill-9" d="M32.62,65.17,47.56,31.78,62.5,65.17Zm61.24,35C86.59,84.26,79,67.73,71.37,51.19S56.16,18.13,48.88,2.24a1.42,1.42,0,0,0-1.27-.72,1.68,1.68,0,0,0-1.4.76l-45,97.88a1.45,1.45,0,0,0,.14,1.31,1.39,1.39,0,0,0,1.18.52H15.21a1.68,1.68,0,0,0,1.34-.92L26.91,78.32h41.3l.07.15c1.43,3.19,3,6.51,4.44,9.72,2,4.29,4,8.72,5.87,12.92a1.62,1.62,0,0,0,1.33.88H92.55a1.39,1.39,0,0,0,1.18-.52A1.47,1.47,0,0,0,93.86,100.13ZM132,91.68c-11,0-16.74-9.9-16.74-19.68,0-9.35,5.87-19.29,16.74-19.29,10.24,0,17.39,7.94,17.39,19.29C149.38,81.8,144,91.68,132,91.68Zm2.71-51.34a24,24,0,0,0-18.25,8.16L116,49V2.53a1.44,1.44,0,0,0-1.42-1.17H103.38a1.45,1.45,0,0,0-1.44,1.17V100.7a1.35,1.35,0,0,0,1.44,1.29h11.08a1.35,1.35,0,0,0,1.43-1.29V95.46l.43.44a25.38,25.38,0,0,0,17.87,8c19.84,0,28.88-16.67,28.88-32.17C163.07,56.52,153.13,40.34,134.7,40.34Zm50-39H173.57a1.45,1.45,0,0,0-1.43,1.17V100.7a1.35,1.35,0,0,0,1.43,1.29h11.09a1.31,1.31,0,0,0,1.3-1.29V2.53A1.42,1.42,0,0,0,184.66,1.36Zm25.81,63.81.08-.31c1.77-6.16,7.29-12.4,14.42-12.4,8,0,12.64,6.41,14.29,12.4l.08.31ZM225,40.34c-18.06,0-29.27,12.33-29.27,32.18,0,18.49,12.14,31.4,29.53,31.4A30.3,30.3,0,0,0,252.6,87.46l.09-.18c.06-.42-.2-.84-.8-1.32l-9.38-5.25a1.2,1.2,0,0,0-1.75.32c-3.74,6-7.26,10.65-15.41,10.65-8.8,0-15.17-5.88-15.83-14.64l0-.26H252a1.28,1.28,0,0,0,1.43-1.17v-1.8C253.47,58.37,246,40.34,225,40.34Zm72.86,1.8H284.05V26.45a1.14,1.14,0,0,0-1.3-1.16H271.67c-.72,0-1.43.36-1.43,1.16V33c0,3,0,9.12-8.24,9.12h-2.32a1.46,1.46,0,0,0-1.44,1.18V53.74c0,1,1.1,1,1.44,1h10.56v25.3c0,16.25,6.06,23.81,19.09,23.81a23.92,23.92,0,0,0,9-1.36v0a1.4,1.4,0,0,0,1-1V90.49a1.33,1.33,0,0,0-1.43-1.17,3.39,3.39,0,0,0-.94.24,13,13,0,0,1-7.21,1.17C284,89.47,284,82,284.05,77.08V54.77h13.78c.34,0,1.43-.07,1.43-1V43.32A1.45,1.45,0,0,0,297.83,42.14Zm39.29,48.77c-10,0-18.17-8.43-18.17-18.78a18.3,18.3,0,1,1,36.59,0A18.63,18.63,0,0,1,337.12,90.91Zm0-50.57c-18,0-32.11,14-32.11,31.79s14.1,31.79,32.11,31.79,32.11-14,32.11-31.79S355.12,40.34,337.12,40.34Zm70.5,0a21.92,21.92,0,0,0-15.54,6.23l-.4.41-.15-3.66a1.44,1.44,0,0,0-1.44-1.18H379a1.44,1.44,0,0,0-1.43,1.17V100.7A1.35,1.35,0,0,0,379,102h11.08a1.35,1.35,0,0,0,1.44-1.29V74.45c0-9.68,0-21.73,12.74-21.73,10.48,0,11.33,6.87,11.33,15.17V100.7A1.35,1.35,0,0,0,417,102h11.09a1.24,1.24,0,0,0,1.3-1.29V66.47C429.42,48.4,422.7,40.34,407.62,40.34Z" transform="translate(-1.16 -1.36)" fill="#fd5948"/></svg>